<svg width="50" height="80" viewBox="0 0 50 80" fill="none" xmlns="http://www.w3.org/2000/svg">
<path d="M14.1164 47.0313V33.7938H17.0414V47.0313H14.1164ZM11.5664 36.2875V33.7938H16.8539V36.2875H11.5664Z" fill="white"/>
<path d="M20.3213 47.0313L24.4838 41.2375L25.5713 41.1625C25.4088 41.45 25.2276 41.7063 25.0276 41.9313C24.8401 42.1438 24.5963 42.3125 24.2963 42.4375C24.0088 42.55 23.6213 42.6063 23.1338 42.6063C22.3338 42.6063 21.5963 42.4188 20.9213 42.0438C20.2588 41.6563 19.7276 41.1375 19.3276 40.4875C18.9401 39.825 18.7463 39.075 18.7463 38.2375C18.7463 37.3625 18.9651 36.575 19.4026 35.875C19.8401 35.175 20.4276 34.6188 21.1651 34.2063C21.9026 33.7938 22.7338 33.5875 23.6588 33.5875C24.5838 33.5875 25.4151 33.7938 26.1526 34.2063C26.8901 34.6063 27.4713 35.1563 27.8963 35.8563C28.3338 36.5438 28.5526 37.325 28.5526 38.2C28.5526 39.325 28.1651 40.4563 27.3901 41.5938L23.6588 47.0313H20.3213ZM23.6588 40.4125C24.0463 40.4125 24.3963 40.3188 24.7088 40.1313C25.0213 39.9438 25.2651 39.6938 25.4401 39.3813C25.6151 39.0563 25.7026 38.6938 25.7026 38.2938C25.7026 37.8813 25.6151 37.5125 25.4401 37.1875C25.2651 36.8625 25.0213 36.6125 24.7088 36.4375C24.3963 36.25 24.0463 36.1563 23.6588 36.1563C23.2588 36.1563 22.9026 36.25 22.5901 36.4375C22.2901 36.6125 22.0463 36.8625 21.8588 37.1875C21.6838 37.5125 21.5963 37.8813 21.5963 38.2938C21.5963 38.6938 21.6838 39.0563 21.8588 39.3813C22.0463 39.6938 22.2963 39.9438 22.6088 40.1313C22.9213 40.3188 23.2713 40.4125 23.6588 40.4125Z" fill="white"/>
<path d="M29.9446 41.95V39.5688H38.6634V41.95H29.9446ZM33.0946 36.175H35.5321V45.3063H33.0946V36.175Z" fill="white"/>
<circle cx="25" cy="40" r="23.4375" stroke="white" stroke-width="3.125"/>
</svg>
