<svg width="661" height="674" viewBox="0 0 661 674" fill="none" xmlns="http://www.w3.org/2000/svg">
<g clip-path="url(#clip0_126_23)">
<path d="M381.057 417.913C372.833 402.859 383.179 398.09 402.342 398.206C417.874 398.704 433.395 399.009 448.927 399.484C451.867 399.585 454.244 400.206 453.209 395.425C452.077 390.227 455.156 386.531 459.138 383.755C462.62 381.334 466.68 380.317 470.709 379.2C478.184 377.105 485.67 375.053 494.337 372.661C489.687 369.043 486.129 366.324 482.647 363.528C477.955 359.768 473.067 356.21 468.727 352.058C463.638 347.184 460.24 341.481 464.052 334.277C465.705 331.16 463.416 331.174 461.512 330.943C456.491 330.33 451.428 329.987 446.44 329.133C434.491 327.089 431.378 319.97 438.339 310.103C444.619 301.208 451.393 292.68 457.891 283.948C459.664 281.567 461.235 279.013 463.034 276.335C447.866 271.763 444.205 266.204 445.723 250.986C446.654 241.634 447.631 232.28 448.525 222.925C448.652 221.561 449.666 219.711 447.894 218.925C447.053 218.549 445.575 219.356 444.545 219.907C436.114 224.455 427.737 229.079 419.316 233.644C408.02 239.78 404.175 239.208 395.131 229.465C392.937 227.108 391.996 227.175 390.744 229.884C387.592 236.787 384.431 243.695 381.1 250.508C377.763 257.311 374.699 264.332 370.671 270.689C364.597 280.26 353.68 279.418 347.826 269.264C346.17 266.226 344.719 263.081 343.484 259.849C337.806 245.901 332.192 231.918 326.468 217.713C310.437 230.958 306.969 230.839 289.997 217.621C279.903 209.748 269.672 202.079 259.27 194.138C258.039 197.166 258.767 199.511 258.96 201.761C260.02 214.606 261.292 227.452 262.351 240.297C263.389 252.8 258.225 260.331 246.716 262.262C241.807 263.084 242.555 264.453 244.871 267.721C254.258 280.938 263.538 294.229 272.709 307.596C276.253 312.748 277.489 318.372 274.247 323.947C271.082 329.361 265.68 330.228 260.005 329.667C251.419 328.824 242.834 327.744 234.256 326.72C227.646 325.916 221.038 325.028 213.944 324.135C214.364 325.895 214.51 326.722 214.747 327.523C218.412 339.898 216.689 344.289 205.66 350.374C197.278 354.989 188.847 359.536 180.479 364.178C179.306 364.831 177.315 365.024 177.395 366.852C177.475 368.658 179.441 368.808 180.694 369.442C190.199 374.317 199.815 378.966 209.247 383.987C217.985 388.644 221.124 395.984 219.114 405.56C218.792 407.126 217.303 408.516 218.649 410.83C231.802 409.838 245.132 408.655 258.505 407.895C271.68 407.138 276.097 413.886 270.542 425.917C268.107 431.203 265.442 436.369 262.537 442.301C272.578 442.361 276.709 448.111 278.276 456.345C279.117 460.772 279.507 465.281 279.972 469.773C280.575 475.683 281.059 481.613 281.712 488.863L288.073 483.221C293.492 478.376 298.808 473.387 304.387 468.727C310.786 463.37 317.539 461.894 322.142 465.879C326.573 469.722 327.709 467.276 329.688 463.958C337.94 450.053 346.193 436.148 354.738 422.436C362.123 410.607 373.298 405.973 381.057 417.913ZM381.057 417.913C402.409 450.745 434.228 536.203 434.228 536.203C328.117 588.219 198.828 547.852 141.575 443.06C82.7174 335.33 122.297 200.313 229.973 141.485C337.649 82.6565 472.65 122.292 531.507 230.023C582.785 323.878 559.348 438.442 481.26 505.303" stroke="black" stroke-width="0.5" stroke-linecap="round" stroke-linejoin="round"/>
</g>
<defs>
<clipPath id="clip0_126_23">
<rect width="496" height="496" fill="white" transform="translate(0 237.81) rotate(-28.6498)"/>
</clipPath>
</defs>
</svg>
