<svg width="147" height="23" viewBox="0 0 147 23" fill="none" xmlns="http://www.w3.org/2000/svg">
<g clip-path="url(#clip0_4308_3391)">
<path d="M130.677 8.9654L130.986 6.14429H145.934L146.552 0H125.421L119.113 5.06269L118.163 14.0629H133.077L132.777 16.8886H117.854L117.203 23H138.38L144.63 17.9837L145.626 8.9654H130.677Z" fill="white"/>
<path fill-rule="evenodd" clip-rule="evenodd" d="M87.5781 23L89.9781 0H110.37L116.643 5.06L115.397 16.8866L100.035 16.8889L99.3989 23H87.5781ZM104.055 6.14441H101.147L100.33 14.0645H103.217L104.055 6.14441Z" fill="white"/>
<path d="M59.5758 0H87.5871L85.1871 23H72.6385L73.2898 16.8557H70.3753L69.7345 23H57.1758L59.5758 0ZM73.5553 14.0645C73.6239 13.3855 73.9758 10.1529 74.0442 9.49571C74.0901 8.92618 74.1471 8.33477 74.2158 7.72142C74.2842 7.10811 74.3413 6.58237 74.3871 6.14429H71.4937L70.6657 14.0645H73.5553Z" fill="white"/>
<path d="M43.5891 0H31.5891L29.7031 17.9055L35.9587 23H54.8007L55.4176 16.8557H41.8407L43.5891 0Z" fill="white"/>
<path d="M28.1547 9.95571L29.1832 0H7.54632L1.18381 5.06575L-0.679688 23H21.0252L27.3591 17.9137L27.846 12.7814H15.3318L14.886 16.8557H11.9717L13.0689 6.14429H15.9835L15.5851 9.95571H28.1547Z" fill="white"/>
</g>
<defs>
<clipPath id="clip0_4308_3391">
<rect width="147" height="23" fill="white"/>
</clipPath>
</defs>
</svg>
