<svg width="130" height="130" viewBox="0 0 130 130" fill="none" xmlns="http://www.w3.org/2000/svg">
<path d="M86.7973 64.1122C85.9341 63.7365 85.8955 62.9646 85.9828 62.4425L88.0425 55.1951L81.1038 56.6372C80.8661 56.6697 80.2019 56.619 79.8586 55.256L79.2472 52.7901L74.4352 58.311C74.4352 58.311 71.3192 61.689 72.2962 56.5316L74.3864 45.5121L70.5209 47.4296C70.3016 47.5149 69.5398 47.6246 68.5303 45.7132L65 39.0344L61.4717 45.7132C60.4622 47.6225 59.7005 47.5149 59.4811 47.4296L55.6197 45.5121L57.7058 56.5316C58.6828 61.689 55.5689 58.311 55.5689 58.311L50.7569 52.7901L50.1455 55.256C49.8022 56.619 49.142 56.6677 48.8983 56.6372L41.9595 55.1951L44.0172 62.4425C44.1066 62.9646 44.0659 63.7385 43.2027 64.1122L41.0312 65.0608C41.0312 65.0608 48.9917 71.4166 51.5998 73.5819C52.1077 74.0024 53.3366 75.2333 52.9141 76.5496L51.9837 79.434L62.8773 77.7805C63.4359 77.7338 64.6303 77.8293 64.5552 79.5944L64.0473 90.9674H65.9527L65.4448 79.5944C65.3697 77.8313 66.5681 77.7338 67.1227 77.7805L78.0163 79.434L77.0859 76.5496C76.6634 75.2333 77.8903 74.0024 78.4002 73.5819C81.0062 71.4166 88.9667 65.0608 88.9667 65.0608L86.7973 64.1122Z" fill="#E04122"/>
<path d="M65 4.0625C31.3462 4.0625 4.0625 31.3462 4.0625 65C4.0625 98.6538 31.3462 125.938 65 125.938C98.6538 125.938 125.938 98.6538 125.938 65C125.938 31.3462 98.6538 4.0625 65 4.0625ZM33.0423 112.019V17.9806C42.1566 11.765 53.1598 8.125 65 8.125C76.8402 8.125 87.8434 11.765 96.9577 17.9806V112.021C87.8434 118.235 76.8402 121.875 65 121.875C53.1598 121.875 42.1566 118.235 33.0423 112.019Z" fill="#E04122"/>
</svg>
