<svg width="142" height="142" viewBox="0 0 142 142" fill="none" xmlns="http://www.w3.org/2000/svg">
<g clip-path="url(#clip0_419_156)">
<path d="M76.0823 92.3112C75.8843 92.2124 75.6203 92.0476 75.2903 91.9817C75.0263 91.9158 74.5643 91.9158 73.9043 91.9158H73.1123V96.3977H74.3663C74.8283 96.3977 75.1583 96.3977 75.4223 96.3318C75.6863 96.2659 75.9503 96.2329 76.0493 96.0681C76.2473 95.9693 76.3793 95.7386 76.5113 95.442C76.6763 95.1124 76.7093 94.717 76.7093 94.1897C76.7093 93.6624 76.6433 93.234 76.5113 93.0362C76.3793 92.6737 76.2803 92.4101 76.0823 92.3112Z" fill="white"/>
<path d="M50.0776 91.8499C49.3516 91.8499 48.8236 92.0476 48.3946 92.443C47.9326 92.8715 47.7676 93.4317 47.7676 94.2226C47.7676 95.0135 47.9656 95.5408 48.3946 96.0022C48.8566 96.4306 49.3846 96.5954 50.0776 96.5954C50.7046 96.5954 51.3316 96.3977 51.7276 96.0022C52.1896 95.6397 52.3546 95.0135 52.3546 94.2226C52.3546 93.4317 52.1566 92.8385 51.7276 92.5419C51.3976 92.0476 50.8366 91.8499 50.0776 91.8499Z" fill="white"/>
<path d="M87.0378 91.9487C86.8398 91.9487 86.4438 91.8828 85.7838 91.8828H84.9258V93.7942H85.8828C86.5098 93.7942 87.0048 93.7283 87.2688 93.6953C87.4668 93.6294 87.6978 93.4976 87.7968 93.3658C87.8958 93.2669 87.9948 93.0362 87.9948 92.8385C87.9948 92.5749 87.9288 92.3771 87.7308 92.2453C87.5328 92.1465 87.3018 91.9487 87.0378 91.9487Z" fill="white"/>
<path d="M94.9584 91.8499C94.2324 91.8499 93.7044 92.0476 93.2754 92.443C92.8134 92.8715 92.6484 93.4317 92.6484 94.2226C92.6484 95.0135 92.8464 95.5408 93.2754 96.0022C93.7374 96.4306 94.2654 96.5954 94.9584 96.5954C95.5854 96.5954 96.2124 96.3977 96.6084 96.0022C97.0704 95.6397 97.2354 95.0135 97.2354 94.2226C97.2354 93.4317 97.0374 92.8385 96.6084 92.5419C96.2454 92.0476 95.7174 91.8499 94.9584 91.8499Z" fill="white"/>
<path d="M42.9498 92.7397C42.9498 92.5419 42.8838 92.3771 42.7518 92.2124C42.6528 92.1135 42.3228 92.0146 42.1248 91.9487C42.0258 91.9487 41.5968 91.9487 40.8708 91.9487H39.5508V93.6294H40.8048C41.5968 93.6294 42.1248 93.6294 42.3228 93.5635C42.5208 93.4976 42.7518 93.4647 42.7848 93.2999C42.9168 93.1022 42.9498 92.9374 42.9498 92.7397Z" fill="white"/>
<path d="M25.6911 91.9487C25.4931 91.9487 25.0971 91.8828 24.4371 91.8828H23.5791V93.7942H24.5361C25.1631 93.7942 25.6581 93.7283 25.9221 93.6953C26.1201 93.6294 26.3511 93.4976 26.4501 93.3658C26.5491 93.2669 26.6481 93.0362 26.6481 92.8385C26.6481 92.5749 26.5821 92.3771 26.3841 92.2453C26.1861 92.1135 26.0211 91.9487 25.6911 91.9487Z" fill="white"/>
<path d="M33.611 91.9487C33.413 91.9487 33.017 91.8828 32.357 91.8828H31.499V93.7942H32.456C33.083 93.7942 33.578 93.7283 33.842 93.6953C34.04 93.6294 34.271 93.4976 34.37 93.3658C34.469 93.2669 34.568 93.0362 34.568 92.8385C34.568 92.5749 34.502 92.3771 34.304 92.2453C34.106 92.1465 33.941 91.9487 33.611 91.9487Z" fill="white"/>
<path d="M15.5596 94.8487H17.8696L16.6486 92.3771L15.5596 94.8487Z" fill="white"/>
<path d="M105.584 92.7397C105.584 92.5419 105.518 92.3771 105.386 92.2124C105.287 92.1135 104.957 92.0146 104.759 91.9487C104.66 91.9487 104.231 91.9487 103.505 91.9487H102.185V93.6294H103.439C104.231 93.6294 104.759 93.6294 104.957 93.5635C105.155 93.4976 105.386 93.4647 105.419 93.2999C105.518 93.1022 105.584 92.9374 105.584 92.7397Z" fill="white"/>
<path d="M117.53 94.8487H119.84L118.619 92.3771L117.53 94.8487Z" fill="white"/>
<path d="M137 49.8648C136.934 45.4488 134.03 41.8897 129.674 41.1646C128.618 40.9669 127.496 40.9999 126.44 40.9999C89.018 40.9999 51.563 40.9999 14.24 40.9999C8.762 40.9999 5 44.6908 5 50.2273V67.4299V93.069C5 98.5396 9.653 102.099 14.174 102.033C33.116 101.934 52.091 101.967 71 101.967H128.453C128.915 101.967 129.41 101.967 129.773 101.868C134.063 101.077 136.967 97.5839 136.967 93.0031C137.033 83.512 136.967 74.0209 137.033 64.5298C137 59.6854 137 54.7751 137 49.8648ZM19.157 97.5839L18.431 96.0679H15.032L14.306 97.5839H12.458L15.791 90.7951H17.573L21.005 97.5839H19.157ZM28.166 93.8929C27.968 94.1565 27.704 94.4202 27.44 94.519C27.176 94.6179 26.846 94.7827 26.582 94.8486C26.219 94.9145 25.592 94.9145 24.8 94.9145H23.678V97.485H21.995V90.7951H24.734C25.79 90.7951 26.417 90.861 26.78 90.894C27.242 90.9928 27.737 91.2235 28.034 91.5201C28.364 91.8497 28.496 92.311 28.496 92.8383C28.43 93.2667 28.331 93.6293 28.166 93.8929ZM36.086 93.8929C35.888 94.1565 35.624 94.4202 35.36 94.519C35.096 94.6179 34.766 94.7827 34.502 94.8486C34.139 94.9145 33.512 94.9145 32.72 94.9145H31.598V97.485H29.915V90.7951H32.654C33.71 90.7951 34.337 90.861 34.7 90.894C35.162 90.9928 35.657 91.2235 35.954 91.5201C36.284 91.8497 36.416 92.311 36.416 92.8383C36.35 93.2667 36.251 93.6293 36.086 93.8929ZM43.346 97.5839L42.092 96.1009C41.63 95.5736 41.366 95.2441 41.135 95.1122C40.937 95.0134 40.805 94.8486 40.607 94.8486C40.409 94.7827 40.145 94.7827 39.749 94.7827H39.419V97.6168H37.736V90.7622H41.366C42.323 90.7622 42.95 90.8281 43.379 90.9599C43.808 91.0588 44.105 91.2894 44.369 91.586C44.633 91.9156 44.798 92.2122 44.798 92.6406C44.798 93.1679 44.6 93.5963 44.204 93.8929C43.775 94.2224 43.247 94.4202 42.554 94.519C42.983 94.7168 43.181 94.9475 43.511 95.1122C43.775 95.31 44.105 95.7054 44.501 96.2327L45.557 97.5509H43.445L43.346 97.5839ZM53.114 96.6941C52.388 97.2873 51.431 97.6498 50.144 97.6498C48.89 97.6498 47.933 97.3202 47.075 96.6941C46.283 96.1009 45.953 95.277 45.953 94.1236C45.953 93.4974 46.052 92.8713 46.382 92.4429C46.58 92.1133 46.844 91.8167 47.174 91.4872C47.504 91.1576 47.9 91.0258 48.296 90.894C48.824 90.6962 49.418 90.6303 50.144 90.6303C51.398 90.6303 52.355 90.9599 53.213 91.586C53.939 92.1792 54.335 93.0031 54.335 94.1565C54.203 95.277 53.84 96.1009 53.114 96.6941ZM59.582 97.5839H57.734L54.665 90.7951H56.513L58.691 95.8043L60.803 90.7951H62.651L59.582 97.5839ZM69.944 97.5839H63.509V90.7951H69.779V91.9156H65.192V93.4315H69.482V94.552H65.192V96.3975H69.944V97.5839ZM78.293 95.6395C78.095 96.1009 77.765 96.5952 77.336 96.7929C77.006 97.0566 76.61 97.2214 76.181 97.3202C75.752 97.3861 75.323 97.4191 74.663 97.4191H71.429V90.7622H74.531C75.257 90.7622 75.785 90.8281 76.115 90.861C76.643 90.9599 77.072 91.1906 77.369 91.4542C77.699 91.7838 77.963 92.0804 78.161 92.5747C78.359 93.0361 78.425 93.5633 78.425 94.1565C78.392 95.0134 78.326 95.31 78.293 95.6395ZM89.48 93.8929C89.282 94.1565 89.018 94.4202 88.754 94.519C88.49 94.6179 88.16 94.7827 87.896 94.8486C87.467 94.9145 86.906 94.9145 86.114 94.9145H84.992V97.485H83.309V90.7951H86.048C87.104 90.7951 87.731 90.861 88.094 90.894C88.556 90.9928 89.051 91.2235 89.348 91.5201C89.678 91.8497 89.81 92.311 89.81 92.8383C89.744 93.2667 89.678 93.6293 89.48 93.8929ZM97.928 96.6941C97.202 97.2873 96.245 97.6498 94.958 97.6498C93.704 97.6498 92.747 97.3202 91.889 96.6941C91.163 96.1009 90.767 95.277 90.767 94.1236C90.767 93.4974 90.866 92.8713 91.196 92.4429C91.394 92.1133 91.658 91.8167 91.988 91.4872C92.318 91.1576 92.714 91.0258 93.11 90.894C93.638 90.6962 94.232 90.6303 94.958 90.6303C96.212 90.6303 97.169 90.9599 98.027 91.586C98.753 92.1792 99.149 93.0031 99.149 94.1565C99.05 95.277 98.72 96.1009 97.928 96.6941ZM105.947 97.5839L104.693 96.1009C104.231 95.5736 103.967 95.2441 103.802 95.1122C103.604 95.0134 103.472 94.8486 103.274 94.8486C103.076 94.7827 102.812 94.7827 102.416 94.7827H102.086V97.6168H100.403V90.7622H104.033C104.99 90.7622 105.617 90.8281 106.046 90.9599C106.475 91.0588 106.772 91.2894 107.036 91.586C107.3 91.9156 107.465 92.2122 107.465 92.6406C107.465 93.1679 107.267 93.5963 106.871 93.8929C106.508 94.2224 105.98 94.4202 105.221 94.519C105.65 94.7168 105.848 94.9475 106.112 95.1122C106.376 95.31 106.706 95.7054 107.102 96.2327L108.158 97.5509H106.046L105.947 97.5839ZM112.613 97.5839H110.93V91.8826H108.389V90.7622H115.154V91.8826H112.679V97.5839H112.613ZM121.16 97.5839L120.434 96.0679H117.068L116.342 97.5839H114.494L117.761 90.7951H119.543L122.975 97.5839H121.16ZM129.938 97.5839H123.932V90.7951H125.615V96.3975H129.905L129.938 97.5839ZM135.152 78.5028C135.152 82.9847 131.984 86.1484 127.43 86.1484C89.942 86.1484 52.388 86.1484 14.9 86.2143C10.775 86.2803 7.079 82.9518 7.145 78.6347C7.211 69.5061 7.31 60.4434 7.079 51.2819C7.046 47.5579 10.61 43.5374 14.702 43.5374C33.512 43.6363 52.289 43.6033 71.099 43.6033V43.5374H126.209C127.331 43.5374 128.519 43.5374 129.641 43.8011C132.875 44.5261 135.185 48.3489 135.185 51.183C135.086 60.2457 135.152 69.3743 135.152 78.5028Z" fill="white"/>
<path d="M64.0371 48.8763H67.9971C70.5381 56.2582 73.0791 63.6402 75.6531 71.088C75.8511 71.088 75.9831 71.1539 76.1811 71.1539C79.2501 63.2447 82.2531 55.3355 85.3551 47.0967C88.3251 55.2696 91.1631 63.2447 94.0671 71.1869H94.5291C97.2681 63.8049 100.139 56.3571 102.911 48.9422H106.97C102.746 60.0151 98.5881 70.9892 94.3971 81.8314C94.2981 81.8314 94.0671 81.8314 93.9351 81.8314C91.0641 73.8563 88.1601 65.8811 85.1901 57.6753C82.0221 65.9141 78.9531 73.8233 75.9501 81.7325C75.7521 81.7325 75.6201 81.7325 75.4221 81.7325C71.7261 70.8573 67.8981 59.9821 64.0371 48.8763Z" fill="white"/>
<path d="M42.0588 64.0027C43.0488 71.5495 39.3528 78.503 31.5978 80.5462C21.7638 83.2486 13.4478 76.3939 11.8968 67.2653C10.5108 58.7629 16.2858 50.6559 23.8428 48.6127C30.1788 46.8661 36.6138 49.4036 40.9368 55.4674C39.9798 56.3242 39.0228 57.2469 38.3628 57.8401C36.1848 56.1924 34.3368 54.0832 32.0268 53.1605C24.2058 50.0298 16.8798 55.5003 16.0878 63.113C15.3618 69.8688 19.0578 75.1416 25.2618 77.02C30.0798 78.536 36.6798 74.5484 37.4718 69.6381C37.5378 69.3085 37.4718 68.9131 37.4718 68.254C34.6338 68.254 31.9278 68.254 29.0898 68.254C29.0898 66.738 29.0898 65.5516 29.0898 64.2334C29.6838 64.1675 30.2118 64.0357 30.6738 64.0357C34.4688 64.0027 38.1978 64.0027 42.0588 64.0027Z" fill="white"/>
<path d="M110.402 71.846C109.247 74.6801 108.092 77.3825 106.904 80.2166C105.65 80.2166 104.462 80.2166 102.944 80.2166C107.597 69.3084 112.019 58.4003 116.87 46.9319C121.556 58.3344 126.044 69.1766 130.598 80.2495C129.113 80.2495 127.892 80.2495 126.473 80.2495C125.351 77.5472 124.262 74.779 122.975 71.813C118.982 71.846 114.758 71.846 110.402 71.846ZM117.002 56.8184C116.903 56.8184 116.672 56.8843 116.54 56.8843C115.055 60.5753 113.57 64.2004 112.052 67.9573H121.49C120.005 64.1674 118.52 60.4765 117.002 56.8184Z" fill="white"/>
<path d="M49.781 66.8368V80.1836C48.461 80.1836 47.339 80.1836 46.085 80.1836C46.085 69.7369 46.085 59.356 46.085 48.3819C49.847 48.3819 53.543 48.316 56.909 49.1728C60.935 50.1615 62.783 54.7752 62.189 58.9935C61.496 63.6401 58.328 66.5402 53.543 66.8368C52.421 66.9027 51.266 66.8368 49.781 66.8368ZM49.946 63.1458C53.114 63.1458 56.084 63.5742 57.866 60.5753C59.021 58.5651 58.856 55.632 57.437 54.182C55.325 52.0729 53.84 52.5013 49.946 52.5013V63.1458Z" fill="white"/>
</g>
<defs>
<clipPath id="clip0_419_156">
<rect width="132" height="61" fill="white" transform="translate(5 41)"/>
</clipPath>
</defs>
</svg>
