<svg width="111" height="109" viewBox="0 0 111 109" fill="none" xmlns="http://www.w3.org/2000/svg">
<path d="M57.3223 77.1265C57.3223 73.4774 58.8855 72.9548 62.5346 75.0406C66.6381 77.4174 70.8085 79.6769 75.0406 81.8163C75.0406 79.735 77.1265 78.1671 80.7756 79.2078C84.4248 80.2484 88.0692 80.771 88.0692 80.771C88.0692 80.771 85.988 76.0812 84.9427 74C83.3795 70.3509 84.9428 68.265 86.506 67.747C86.506 67.747 84.4248 66.1838 82.8569 65.1385C79.7304 63.0573 80.253 60.4488 83.3795 59.4035C87.5512 57.3223 93.2816 55.241 93.2816 55.241C91.7184 54.1958 89.6325 51.5873 91.7184 47.9428C93.7996 44.8163 97.4534 40.1265 97.4534 40.1265H87.5513C83.8975 40.1265 82.8569 37 82.8569 34.9141C82.8569 34.9141 77.1265 39.0812 72.9594 41.6897C69.3056 44.2936 66.1838 41.6898 66.7064 37.518C67.4074 33.0235 67.9289 28.5028 68.2696 23.9668C66.1837 26.0526 62.5346 25.5346 60.4534 22.4081C57.8449 17.1957 55.241 10.9381 55.241 10.9381C55.241 10.9381 52.6325 17.1957 50.0286 22.4127C48.4654 25.5392 44.8163 26.0573 42.7304 24.494C43.0711 29.0301 43.5926 33.5507 44.2936 38.0453C44.8162 41.6944 41.6898 44.2983 38.0406 41.6944C33.8735 39.0859 27.6205 34.9187 27.6205 34.9187C27.6205 37 26.5753 39.6085 22.9308 40.1311H13.0286C13.0286 40.1311 16.6778 44.8209 18.7636 47.9474C20.8495 51.0739 18.7636 54.2004 17.1957 55.241C17.1957 55.241 22.4081 57.8495 27.0979 59.4128C30.2244 60.976 31.2696 63.0573 27.6205 65.1478C26.5753 66.1884 23.9714 67.7516 23.9714 67.7516C26.0526 68.2696 27.6205 70.3555 26.0526 74.0046C25.012 76.0859 22.9308 80.7756 22.9308 80.7756C22.9308 80.7756 26.5752 79.735 30.2244 79.2124C33.8735 78.1718 35.4368 80.2576 35.9594 81.8209C35.9594 81.8209 42.2124 78.1717 48.4654 75.0452C51.5919 72.964 53.6777 74.0046 53.6777 77.1265V85.988C53.6777 91.2004 52.6325 96.4128 51.0692 99.5393C27.6205 96.9308 7.81625 78.1718 7.81625 53.1598C7.81625 27.6251 29.1837 6.77562 55.759 6.77562C82.3389 6.77562 103.706 27.6251 103.706 53.1598C103.706 77.1311 84.9427 96.9308 60.9714 99.5393V105.792C89.1145 103.184 111 80.771 111 53.1551C111 23.4488 85.988 0 55.241 0C25.012 0 0 23.4488 0 52.6325C0 78.1671 19.2816 99.53 44.8162 104.224C48.988 105.265 51.5919 105.788 54.1958 108.392C56.8043 103.184 57.3223 92.759 57.3223 87.024V77.1265Z" fill="#0E555B"/>
</svg>
