<svg width="80" height="80" viewBox="0 0 80 80" fill="none" xmlns="http://www.w3.org/2000/svg">
<path fill-rule="evenodd" clip-rule="evenodd" d="M45.3317 35.1115L43.7682 34.1744L43.6521 34.358C43.2958 34.9228 42.8088 35.2092 42.2053 35.2087C41.1713 35.2082 40.3919 34.4212 40.3925 33.378C40.393 32.3349 41.1733 31.5491 42.2073 31.5495C42.8193 31.55 43.2793 31.8213 43.6543 32.4035L43.7711 32.5843L45.3418 31.6452L45.206 31.447C44.4558 30.3506 43.475 29.8176 42.2084 29.8167C39.8135 29.8156 38.5203 31.6501 38.5195 33.3767C38.5186 35.1037 39.8096 36.9399 42.2044 36.941C43.4243 36.9417 44.5755 36.3157 45.2089 35.307L45.3317 35.1115ZM49.6934 31.2272L50.5682 33.443L48.8066 33.4419L49.6934 31.2272ZM45.2533 36.9428L47.415 36.9441L48.0571 35.3324L51.3009 35.3342L51.9413 36.9464L54.1122 36.9479L50.2401 27.5023L48.3119 27.501L48.8253 28.7532L45.2533 36.9428ZM55.0071 36.9481L56.9037 36.9492L56.9061 32.7102L58.1429 32.7109L58.1438 30.9324L56.907 30.9317L56.9075 30.0912C56.9075 29.7306 57.1471 29.3476 57.5908 29.3478C57.8345 29.3479 57.9817 29.39 58.1282 29.4533L58.3395 29.545L59.1274 27.8097L58.9005 27.7162C58.548 27.5702 58.057 27.518 57.7146 27.5178C56.8545 27.5172 56.1455 27.8009 55.6639 28.3378C55.2432 28.8065 55.0112 29.4586 55.0107 30.1732L55.0102 30.9306L54.1726 30.9302L54.1717 32.7087L55.0094 32.7089L55.0071 36.9481Z" fill="white"/>
<path fill-rule="evenodd" clip-rule="evenodd" d="M29.5781 27.4462V36.9337L31.6392 36.9352L31.6421 31.5108L33.6391 33.0125L35.6383 31.5108V36.9374L37.6965 36.9381L37.7016 27.4462L33.6406 30.5419L29.5781 27.4462Z" fill="white"/>
<path fill-rule="evenodd" clip-rule="evenodd" d="M60.7622 32.5233C61.0098 31.8761 61.5441 31.4983 62.2344 31.4985C62.932 31.4989 63.4767 31.869 63.7653 32.5249L60.7622 32.5233ZM62.4164 29.8494C60.029 29.8481 58.7395 31.6773 58.7383 33.3988C58.7377 35.1208 60.0251 36.9512 62.4126 36.9526H62.4152C63.51 36.9406 64.5365 36.4375 65.3313 35.5298L63.7843 34.6788C63.3876 35.0885 62.9059 35.304 62.3744 35.3037C61.5954 35.3031 60.9046 34.7794 60.7238 34.0946L65.8827 34.0973L65.8831 33.6248C65.8843 31.0221 63.8568 29.8501 62.4164 29.8494ZM68.516 32.5277C68.7634 31.8805 69.2972 31.5025 69.988 31.5031C70.6855 31.5033 71.2304 31.8735 71.5191 32.5295L68.516 32.5277ZM70.1698 29.8537C67.7823 29.8523 66.4933 31.6815 66.4922 33.4032C66.4911 35.1254 67.7783 36.9556 70.1662 36.9568H70.1686C71.2636 36.945 72.2903 36.4415 73.0847 35.5342L71.5377 34.6832C71.141 35.0929 70.6595 35.3084 70.1282 35.3081C69.3488 35.3075 68.658 34.784 68.4774 34.099L73.6361 34.1017L73.6366 33.6292C73.6381 31.0265 71.6103 29.8545 70.1698 29.8537Z" fill="white"/>
<path fill-rule="evenodd" clip-rule="evenodd" d="M74.7109 39.8019H75.9645V40.0382H75.4719V41.3632H75.2014V40.0382H74.7109V39.8019Z" fill="white"/>
<path fill-rule="evenodd" clip-rule="evenodd" d="M76.1406 39.8019H76.5225L76.9498 41.0245H76.9541L77.3705 39.8019H77.7474V41.3632H77.4892V40.1582H77.4848L77.0562 41.3632H76.8325L76.4024 40.1582H76.3988V41.3632H76.1406V39.8019Z" fill="white"/>
<path fill-rule="evenodd" clip-rule="evenodd" d="M35.4364 46.3019C35.4364 47.1144 35.1465 47.7546 34.5668 48.2223C33.987 48.6903 33.1804 48.9241 32.1474 48.9241C31.1952 48.9241 30.3532 48.7436 29.6211 48.3825V46.6096C30.223 46.8805 30.7326 47.0714 31.1496 47.1821C31.5665 47.2928 31.9478 47.3484 32.2937 47.3484C32.7087 47.3484 33.0269 47.2684 33.2487 47.1083C33.4704 46.9483 33.5814 46.7103 33.5814 46.3941C33.5814 46.2178 33.5325 46.0607 33.4349 45.9232C33.3373 45.7858 33.1938 45.6536 33.0046 45.5262C32.8156 45.3991 32.4299 45.196 31.8482 44.9169C31.3032 44.6584 30.8943 44.4099 30.6218 44.1719C30.349 43.9341 30.1314 43.657 29.9688 43.341C29.806 43.0249 29.7247 42.6558 29.7247 42.2329C29.7247 41.4368 29.9921 40.811 30.527 40.3554C31.0621 39.9 31.8013 39.6722 32.7453 39.6722C33.2091 39.6722 33.6514 39.7276 34.0725 39.8385C34.4935 39.9492 34.9339 40.1052 35.3936 40.3063L34.7834 41.7897C34.3073 41.5928 33.9138 41.4553 33.6025 41.3775C33.2914 41.2995 32.9852 41.2604 32.6843 41.2604C32.3263 41.2604 32.0516 41.3446 31.8605 41.5128C31.6693 41.6811 31.5737 41.9006 31.5737 42.1713C31.5737 42.3398 31.6123 42.4864 31.6896 42.6114C31.7669 42.7367 31.8899 42.8578 32.0588 42.9747C32.2276 43.0916 32.6272 43.3021 33.2579 43.6057C34.0918 44.0079 34.6633 44.411 34.9726 44.8153C35.2817 45.2195 35.4364 45.7151 35.4364 46.3019Z" fill="white"/>
<path fill-rule="evenodd" clip-rule="evenodd" d="M42.0208 48.8013H36.8828V39.8019H42.0208V41.3651H38.7741V43.3411H41.7949V44.9043H38.7741V47.2249H42.0208V48.8013Z" fill="white"/>
<path fill-rule="evenodd" clip-rule="evenodd" d="M47.3343 41.2604C46.6223 41.2604 46.0713 41.5302 45.6807 42.07C45.2903 42.6096 45.0949 43.3616 45.0949 44.3259C45.0949 46.3327 45.8413 47.3359 47.3343 47.3359C47.9609 47.3359 48.7196 47.1781 49.6105 46.8619V48.4625C48.8782 48.7703 48.0605 48.9241 47.1574 48.9241C45.8596 48.9241 44.8671 48.5271 44.1795 47.7331C43.492 46.939 43.1484 45.7993 43.1484 44.3137C43.1484 43.378 43.317 42.5584 43.6547 41.8544C43.9923 41.1506 44.4774 40.611 45.1103 40.2354C45.7428 39.86 46.484 39.6722 47.3343 39.6722C48.2008 39.6722 49.0713 39.8836 49.9461 40.3063L49.3358 41.8575C49.0023 41.6975 48.6666 41.5579 48.329 41.4388C47.9913 41.3199 47.6597 41.2604 47.3343 41.2604ZM58.4885 39.8016V45.6249C58.4885 46.2894 58.3411 46.8723 58.0462 47.373C57.7511 47.8735 57.325 48.2573 56.7676 48.524C56.2103 48.7909 55.5515 48.9241 54.7906 48.9241C53.6436 48.9241 52.7527 48.6278 52.118 48.0347C51.4833 47.4417 51.166 46.6301 51.166 45.6002V39.8016H53.0516V45.3109C53.0516 46.0045 53.19 46.5132 53.4665 46.8373C53.743 47.1617 54.2008 47.3235 54.8395 47.3235C55.4577 47.3235 55.9062 47.1606 56.1851 46.8343C56.4636 46.5081 56.603 45.9962 56.603 45.2985V39.8016H58.4885ZM62.1851 43.7965H62.7955C63.3934 43.7965 63.8347 43.6961 64.1196 43.4948C64.4042 43.2938 64.5467 42.9778 64.5467 42.5469C64.5467 42.1202 64.4013 41.8164 64.1103 41.6359C63.8195 41.4553 63.3692 41.365 62.7587 41.365H62.1851V43.7965ZM62.1851 45.3478V48.8009H60.2935V39.8016H62.8931C64.1053 39.8016 65.0023 40.0241 65.5842 40.4694C66.1658 40.9148 66.4566 41.5908 66.4566 42.4976C66.4566 43.0271 66.3121 43.4979 66.0235 43.9103C65.7346 44.3228 65.3258 44.646 64.7968 44.8798C66.1394 46.9032 67.0138 48.21 67.4209 48.8009H65.3218L63.1921 45.3478H62.1851Z" fill="white"/>
<path fill-rule="evenodd" clip-rule="evenodd" d="M73.5325 48.8013H68.3945V39.8019H73.5325V41.3651H70.2865V43.3411H73.3066V44.9043H70.2865V47.2249H73.5325V48.8013Z" fill="white"/>
<path fill-rule="evenodd" clip-rule="evenodd" d="M6.91704 44.7564V34.0203L13.6305 37.1526V31.9726L2.25391 26.666V47.7584L13.6305 53.0693V47.8894L6.91704 44.7564Z" fill="white"/>
<path fill-rule="evenodd" clip-rule="evenodd" d="M20.3423 44.756V34.0199L13.6289 37.1522V31.9722L25.0055 26.6656V47.758L13.6289 53.069V47.889L20.3423 44.756Z" fill="white"/>
</svg>
