<svg width="156" height="91" viewBox="0 0 156 91" fill="none" xmlns="http://www.w3.org/2000/svg">
<circle cx="69.9366" cy="50.5201" r="26.9679" stroke="#0E555B" stroke-opacity="0.41" stroke-width="1.79786"/>
<circle cx="69.937" cy="50.5195" r="24.6307" stroke="#0E555B" stroke-opacity="0.41" stroke-width="0.719144"/>
<path d="M70.1167 6.83158L65.9647 14.023L74.2687 14.023L70.1167 6.83158ZM70.8358 88.814L70.8358 13.3039L69.3976 13.3039L69.3976 88.814L70.8358 88.814Z" fill="#0E555B" fill-opacity="0.41"/>
<path d="M41.3101 20.877L43.4593 28.898L49.3311 23.0262L41.3101 20.877ZM98.9651 77.5149L46.3952 24.9451L45.3782 25.9621L97.948 78.5319L98.9651 77.5149Z" fill="#0E555B" fill-opacity="0.41"/>
<path d="M108.231 49.2617L27.3273 49.2617" stroke="#0E555B" stroke-opacity="0.41" stroke-width="1.43829"/>
<path d="M98.7608 20.8769L90.7398 23.0261L96.6116 28.8979L98.7608 20.8769ZM41.9709 78.6838L94.6927 25.962L93.6757 24.945L40.9539 77.6668L41.9709 78.6838Z" fill="#0E555B" fill-opacity="0.41"/>
<path d="M43.0053 38.6336C43.0053 39.2221 42.7531 39.5164 42.2486 39.5164C42.0805 39.5164 41.9333 39.5164 41.8072 39.5164C41.6811 39.4744 41.576 39.3693 41.4919 39.2011C41.4499 39.117 41.3868 38.9279 41.3028 38.6336C41.2607 38.2973 41.2397 38.0661 41.2397 37.9399C41.0295 36.6788 40.7142 35.2915 40.2938 33.7781C39.9155 32.2227 39.3059 30.9616 38.4652 29.9947C38.0448 29.4902 37.3301 29.1539 36.3212 28.9858C35.3123 28.8176 34.2823 28.7335 33.2314 28.7335C32.1804 28.7335 31.3607 28.7335 30.7721 28.7335C30.1416 28.7335 29.3638 28.7335 28.439 28.7335C27.5562 28.7335 26.7575 28.9017 26.0428 29.238C25.3702 29.5743 25.0339 30.2469 25.0339 31.2558C25.0339 37.6036 25.0549 43.9725 25.0969 50.3623C25.181 56.7101 25.2231 63.0789 25.2231 69.4688C25.2231 70.0153 25.4543 70.4357 25.9167 70.7299C26.3791 70.9822 26.9046 71.1503 27.4931 71.2344C28.0817 71.3185 28.5651 71.3605 28.9435 71.3605C29.2798 71.3605 29.574 71.3605 29.8263 71.3605C30.1205 71.3185 30.4148 71.2974 30.7091 71.2974C31.1295 71.2974 31.3396 71.4866 31.3396 71.865C31.3396 72.0331 31.3396 72.2853 31.3396 72.6217C31.3396 72.9159 31.1925 73.0631 30.8982 73.0631C29.3849 73.0631 27.8715 73.042 26.3581 73C24.8868 72.9159 23.3944 72.8739 21.881 72.8739C19.8632 72.8739 17.8033 72.9369 15.7014 73.0631C15.2389 73.0631 14.7555 73.0841 14.251 73.1261C13.7466 73.1682 13.2631 73.1892 12.8007 73.1892C12.4224 73.1892 12.2332 72.958 12.2332 72.4955C12.2332 71.9911 12.2962 71.6758 12.4224 71.5497C12.5485 71.4236 12.8427 71.3605 13.3052 71.3605C13.3892 71.3605 13.4733 71.3815 13.5574 71.4236C13.6835 71.4236 13.7676 71.4236 13.8096 71.4236C14.272 71.4236 14.8606 71.3815 15.5752 71.2974C16.2899 71.2134 16.9205 71.0452 17.467 70.793C18.0555 70.4987 18.3498 70.0573 18.3498 69.4688C18.3918 66.2318 18.4128 62.9949 18.4128 59.7579C18.4549 56.5209 18.4759 53.284 18.4759 50.047C18.4759 46.8521 18.4549 43.6782 18.4128 40.5253C18.3708 37.3304 18.3498 34.1355 18.3498 30.9405C18.3498 30.4361 18.1396 29.9737 17.7192 29.5533C17.3409 29.1329 16.9205 28.9017 16.458 28.8596C16.0797 28.7756 15.6803 28.7335 15.26 28.7335C14.8816 28.7335 14.4822 28.7335 14.0619 28.7335H8.44972C6.93634 28.7335 5.8013 29.1119 5.04461 29.8686C4.32996 30.5832 3.8255 31.5291 3.53123 32.7062C3.23696 33.8412 2.96371 35.0183 2.71148 36.2374C2.71148 36.3215 2.64842 36.6157 2.52231 37.1202C2.43823 37.5826 2.33313 38.045 2.20702 38.5075C2.12294 38.9279 2.05988 39.1591 2.01784 39.2011C1.84969 39.4113 1.59746 39.5164 1.26115 39.5164C0.79873 39.5164 0.567519 39.2852 0.567519 38.8228C0.567519 38.6546 0.567519 38.4444 0.567519 38.1922C0.609557 37.8979 0.651596 37.5616 0.693634 37.1833C0.777711 36.2164 0.840769 35.0603 0.882807 33.7151C0.966884 32.3278 1.02994 31.0456 1.07198 29.8686C1.11402 29.4482 1.13504 29.0278 1.13504 28.6074C1.13504 28.187 1.15606 27.8087 1.1981 27.4724C1.1981 26.8838 1.55542 26.6316 2.27008 26.7157C5.33888 27.01 8.42871 27.1571 11.5395 27.1571C14.6924 27.1151 17.8033 27.094 20.8721 27.094H26.232C27.9556 27.094 29.6791 27.094 31.4027 27.094C33.1683 27.052 34.9339 27.01 36.6995 26.9679C37.4562 26.9259 38.234 26.9049 39.0327 26.9049C39.8735 26.8628 40.6932 26.8418 41.4919 26.8418C42.0384 26.8418 42.3537 27.052 42.4378 27.4724C42.4798 27.5985 42.5219 28.0609 42.5639 28.8596C42.606 29.6163 42.648 30.4991 42.69 31.5081C42.7321 32.475 42.7531 33.3998 42.7531 34.2826C42.7951 35.1234 42.8161 35.7119 42.8161 36.0482C42.8582 36.4686 42.9002 36.889 42.9423 37.3094C42.9843 37.7298 43.0053 38.1712 43.0053 38.6336ZM91.776 27.8507C91.776 27.9768 91.7339 28.166 91.6499 28.4182C91.5658 28.6284 91.4186 28.7335 91.2085 28.7335C90.8721 28.7335 90.5358 28.7335 90.1995 28.7335C89.8632 28.6915 89.5269 28.6705 89.1906 28.6705C88.0556 28.6705 87.2568 28.7966 86.7944 29.0488C86.374 29.259 86.1218 29.6374 86.0377 30.1839C85.9957 30.7304 85.9747 31.4871 85.9747 32.4539V72.2433C85.9747 72.6217 85.8275 72.8108 85.5333 72.8108L82.6957 72.8739C82.5275 71.949 82.2122 71.0242 81.7498 70.0993C81.3294 69.1745 80.825 68.3337 80.2364 67.577C75.6963 61.6076 71.1561 55.6802 66.616 49.7948C62.0758 43.8674 57.5987 37.8979 53.1847 31.8864V69.5318C53.1847 70.1204 53.3949 70.5408 53.8153 70.793C54.2777 71.0032 54.7821 71.1293 55.3286 71.1713C55.9172 71.1713 56.4216 71.1713 56.842 71.1713C57.1783 71.1713 57.4936 71.1713 57.7879 71.1713C58.1242 71.1293 58.4605 71.1083 58.7968 71.1083C59.1752 71.1083 59.3643 71.3395 59.3643 71.8019C59.3643 72.1382 59.3223 72.4325 59.2382 72.6847C59.1962 72.9369 58.944 73.0631 58.4815 73.0631C58.1032 73.0631 57.7038 73.042 57.2834 73C56.9051 72.9159 56.5267 72.8529 56.1484 72.8108C55.5178 72.7268 54.8662 72.7057 54.1936 72.7478C53.521 72.7478 52.8694 72.7478 52.2388 72.7478C51.0617 72.7478 49.9057 72.8108 48.7707 72.9369C47.6777 73.021 46.5426 73.0631 45.3655 73.0631C45.0713 73.0631 44.9241 72.8739 44.9241 72.4955C44.9241 71.865 44.9872 71.4866 45.1133 71.3605C45.2394 71.2344 45.5968 71.1713 46.1853 71.1713C46.5216 71.1713 46.8369 71.1923 47.1312 71.2344C47.4675 71.2344 47.7828 71.2344 48.077 71.2344C48.7496 71.2344 49.3382 71.1503 49.8426 70.9822C50.3891 70.814 50.6834 70.3306 50.7254 69.5318C50.8095 67.514 50.8305 65.4751 50.7885 63.4152C50.7465 61.3554 50.7254 59.3165 50.7254 57.2986C50.7254 52.8846 50.7465 48.4706 50.7885 44.0565C50.8726 39.6425 50.9146 35.2075 50.9146 30.7514C50.9146 29.9947 50.7044 29.4692 50.284 29.1749C49.9057 28.8386 49.4222 28.6495 48.8337 28.6074C48.2452 28.5654 47.6566 28.5444 47.0681 28.5444C46.8579 28.5444 46.6267 28.5654 46.3745 28.6074C46.1222 28.6074 45.891 28.6074 45.6808 28.6074C45.1343 28.6074 44.8611 28.3972 44.8611 27.9768C44.8611 27.6826 44.8821 27.4303 44.9241 27.2201C45.0082 26.9679 45.2394 26.8418 45.6178 26.8418C46.7108 26.8418 47.8038 26.8838 48.8968 26.9679C49.9898 27.01 51.0828 27.031 52.1758 27.031C52.9325 27.031 53.6891 27.031 54.4458 27.031C55.2446 26.9889 56.0223 26.9679 56.779 26.9679C58.3344 29.0698 59.9319 31.1297 61.5714 33.1476C63.2109 35.1654 64.8504 37.1833 66.4899 39.2011C69.3485 42.6903 72.2071 46.1795 75.0657 49.6687C77.9243 53.1158 80.7829 56.584 83.6415 60.0732V30.31C83.6415 29.7214 83.3262 29.3011 82.6957 29.0488C82.0651 28.7966 81.5186 28.6705 81.0562 28.6705C80.5097 28.6705 79.9842 28.6915 79.4797 28.7335C78.9753 28.7756 78.4498 28.7966 77.9033 28.7966C77.609 28.7966 77.4619 28.5864 77.4619 28.166C77.4619 28.0399 77.4619 27.9138 77.4619 27.7877C77.4619 27.6195 77.4829 27.4934 77.5249 27.4093C77.5249 27.031 77.7562 26.8418 78.2186 26.8418C78.8071 26.8418 79.4167 26.8838 80.0472 26.9679C80.6778 27.01 81.2874 27.031 81.8759 27.031C83.4734 27.031 85.0498 27.01 86.6052 26.9679C88.1607 26.9259 89.7161 26.8418 91.2715 26.7157C91.5237 26.8838 91.6709 27.052 91.7129 27.2201C91.755 27.3463 91.776 27.5565 91.776 27.8507ZM154.536 27.7877C154.536 27.9558 154.473 28.166 154.346 28.4182C154.262 28.6705 154.115 28.7966 153.905 28.7966C153.527 28.7966 153.148 28.7756 152.77 28.7335C152.434 28.6915 152.076 28.6705 151.698 28.6705C151.067 28.6705 150.563 28.9227 150.185 29.4272C149.806 29.9316 149.512 30.5412 149.302 31.2558C149.134 31.9285 148.986 32.517 148.86 33.0215C147.347 39.6635 145.918 46.3476 144.572 53.0738C143.227 59.7999 141.777 66.484 140.221 73.1261H134.735C133.138 67.3669 131.414 61.6706 129.565 56.0375C127.715 50.4043 125.928 44.7292 124.205 39.0119C122.313 44.7292 120.4 50.4464 118.467 56.1636C116.575 61.8388 114.62 67.493 112.602 73.1261H107.684C107.221 71.2764 106.801 69.4267 106.423 67.577C106.086 65.7274 105.708 63.8987 105.288 62.091L100.874 41.0928C100.537 39.4533 100.201 37.7928 99.8646 36.1113C99.5703 34.3877 99.192 32.7272 98.7296 31.1297C98.3932 29.8686 97.8257 29.1539 97.027 28.9858C96.2703 28.8176 95.3455 28.7335 94.2525 28.7335C93.8741 28.7335 93.6429 28.6074 93.5588 28.3552C93.5168 28.103 93.4958 27.8297 93.4958 27.5354C93.4958 27.031 93.706 26.7787 94.1263 26.7787C94.5888 26.7787 95.0512 26.7998 95.5136 26.8418C96.0181 26.8838 96.5015 26.9259 96.9639 26.9679C98.5614 27.01 100.159 27.031 101.756 27.031C103.354 27.031 104.951 27.031 106.549 27.031C107.263 27.031 107.978 27.01 108.693 26.9679C109.407 26.8838 110.101 26.8418 110.774 26.8418C111.026 26.8418 111.215 26.9469 111.341 27.1571C111.467 27.3673 111.53 27.5775 111.53 27.7877C111.53 28.3342 111.278 28.6074 110.774 28.6074C110.269 28.6074 109.744 28.5864 109.197 28.5444C108.693 28.5023 108.188 28.4813 107.684 28.4813C107.137 28.4813 106.654 28.6074 106.233 28.8596C105.855 29.0698 105.666 29.4902 105.666 30.1208C105.666 30.331 105.666 30.5412 105.666 30.7514C105.708 30.9616 105.75 31.1718 105.792 31.382C106.17 33.3578 106.528 35.3756 106.864 37.4355C107.2 39.4533 107.558 41.4502 107.936 43.426C108.651 47.2515 109.365 51.077 110.08 54.9025C110.837 58.728 111.572 62.5534 112.287 66.3789C113.842 61.8808 115.356 57.3827 116.827 52.8846C118.34 48.3865 119.833 43.8884 121.304 39.3903C121.893 37.5826 122.439 35.775 122.944 33.9673C123.448 32.1176 124.016 30.31 124.646 28.5444C124.814 28.124 124.983 27.8297 125.151 27.6616C125.319 27.4514 125.634 27.3463 126.097 27.3463C126.853 27.3463 127.379 27.6616 127.673 28.2921C127.967 28.9227 128.198 29.6163 128.367 30.373C128.535 31.1297 128.703 31.8444 128.871 32.517C129.291 33.9463 129.691 35.3546 130.069 36.7419C130.448 38.1291 130.847 39.5374 131.267 40.9667C132.528 45.2967 133.853 49.6266 135.24 53.9566C136.627 58.2445 137.93 62.5745 139.15 66.9465C139.948 63.5414 140.684 60.1362 141.357 56.7311C142.071 53.284 142.765 49.8368 143.437 46.3897C143.9 44.2037 144.299 42.0177 144.636 39.8317C145.014 37.6036 145.371 35.3966 145.707 33.2106C145.792 32.6221 145.855 32.0335 145.897 31.445C145.981 30.8565 146.023 30.2679 146.023 29.6794C146.023 29.0909 145.75 28.7335 145.203 28.6074C144.699 28.4393 144.215 28.3552 143.753 28.3552C143.206 28.3552 142.66 28.3762 142.113 28.4182C141.567 28.4603 141.02 28.4813 140.474 28.4813C140.179 28.4813 139.99 28.4182 139.906 28.2921C139.864 28.124 139.843 27.9558 139.843 27.7877C139.843 27.1991 140.074 26.9049 140.537 26.9049C141.882 26.9049 143.227 26.9469 144.572 27.031C145.918 27.073 147.263 27.094 148.608 27.094C149.533 27.094 150.437 27.073 151.32 27.031C152.202 26.9469 153.106 26.9049 154.031 26.9049C154.241 26.9049 154.367 27.01 154.409 27.2201C154.494 27.4303 154.536 27.6195 154.536 27.7877Z" fill="black"/>
<path d="M95.109 79.4287V74.3722H93.8103V73.8189H97.0379V74.3722H95.7392V79.4287H95.109ZM98.3136 75.7785C98.5646 75.6914 98.8336 75.6171 99.1205 75.5556C99.4125 75.4941 99.6994 75.4455 99.9812 75.4096C100.268 75.3737 100.532 75.3558 100.773 75.3558V75.8937C100.46 75.8937 100.119 75.927 99.7506 75.9936C99.3869 76.0551 99.0616 76.1371 98.7747 76.2395L98.9283 75.9475V79.4287H98.3136V75.7785ZM103.178 79.5056C102.799 79.5056 102.499 79.462 102.279 79.3749C102.064 79.2878 101.91 79.1393 101.818 78.9292C101.731 78.714 101.687 78.4194 101.687 78.0455V75.4327H102.287V78.0147C102.287 78.2606 102.312 78.4528 102.363 78.5911C102.415 78.7294 102.504 78.8267 102.632 78.8831C102.766 78.9394 102.95 78.9676 103.186 78.9676C103.309 78.9676 103.419 78.9599 103.516 78.9446C103.619 78.9292 103.718 78.9036 103.816 78.8677C103.918 78.8319 104.028 78.7832 104.146 78.7217L103.931 79.106V75.4327H104.531V79.2596C104.157 79.4236 103.706 79.5056 103.178 79.5056ZM107.228 79.5056C106.628 79.5056 106.183 79.3493 105.891 79.0368C105.599 78.7192 105.453 78.235 105.453 77.5844V77.277C105.453 76.6161 105.573 76.132 105.814 75.8246C106.06 75.5121 106.439 75.3558 106.951 75.3558C107.469 75.3558 107.848 75.5121 108.089 75.8246C108.329 76.132 108.45 76.6161 108.45 77.277V77.692H105.752V77.1925H107.989L107.85 77.3692V77.3C107.85 76.798 107.779 76.4368 107.635 76.2165C107.497 75.9911 107.269 75.8784 106.951 75.8784C106.634 75.8784 106.403 75.9911 106.26 76.2165C106.121 76.4368 106.052 76.798 106.052 77.3V77.5613C106.052 77.9148 106.091 78.1966 106.167 78.4066C106.244 78.6116 106.372 78.7601 106.552 78.8524C106.731 78.9394 106.972 78.983 107.274 78.983C107.423 78.983 107.574 78.9728 107.727 78.9523C107.886 78.9318 108.055 78.8985 108.235 78.8524V79.3826C108.081 79.4185 107.914 79.4466 107.735 79.4671C107.561 79.4928 107.392 79.5056 107.228 79.5056ZM113.137 79.4287V73.8189H114.136L115.489 78.6602H115.52V73.8189H116.134V79.4287H115.135L113.783 74.5873H113.752V79.4287H113.137ZM118.478 79.5056C117.951 79.5056 117.561 79.3519 117.31 79.0445C117.064 78.732 116.941 78.2453 116.941 77.5844V77.277C116.941 76.6161 117.064 76.132 117.31 75.8246C117.561 75.5121 117.951 75.3558 118.478 75.3558C119.011 75.3558 119.4 75.5121 119.646 75.8246C119.892 76.132 120.015 76.6161 120.015 77.277V77.5844C120.015 78.2453 119.892 78.732 119.646 79.0445C119.4 79.3519 119.011 79.5056 118.478 79.5056ZM118.478 78.9676C118.811 78.9676 119.047 78.8575 119.185 78.6372C119.329 78.4169 119.4 78.0531 119.4 77.546V77.3154C119.4 76.8082 119.329 76.4445 119.185 76.2242C119.047 76.0039 118.811 75.8937 118.478 75.8937C118.15 75.8937 117.915 76.0039 117.771 76.2242C117.628 76.4445 117.556 76.8082 117.556 77.3154V77.546C117.556 78.0531 117.628 78.4169 117.771 78.6372C117.915 78.8575 118.15 78.9676 118.478 78.9676ZM121.368 75.7785C121.619 75.6914 121.888 75.6171 122.175 75.5556C122.467 75.4941 122.754 75.4455 123.035 75.4096C123.322 75.3737 123.586 75.3558 123.827 75.3558V75.8937C123.514 75.8937 123.174 75.927 122.805 75.9936C122.441 76.0551 122.116 76.1371 121.829 76.2395L121.983 75.9475V79.4287H121.368V75.7785ZM126.716 79.5056C126.265 79.5056 125.94 79.4133 125.74 79.2289C125.546 79.0445 125.448 78.7345 125.448 78.2991V75.9706H124.449V75.4327H125.448V74.1262H126.063V75.4327H127.6V75.9706H126.063V78.1684C126.063 78.4707 126.117 78.6807 126.225 78.7986C126.337 78.9113 126.542 78.9676 126.839 78.9676C126.983 78.9676 127.116 78.9574 127.239 78.9369C127.367 78.9113 127.487 78.878 127.6 78.837V79.3749C127.457 79.421 127.311 79.4543 127.162 79.4748C127.019 79.4953 126.87 79.5056 126.716 79.5056ZM130.843 76.8466C130.843 76.5956 130.817 76.4009 130.766 76.2626C130.715 76.1243 130.625 76.0295 130.497 75.9783C130.374 75.9219 130.195 75.8937 129.959 75.8937C129.785 75.8937 129.626 75.9117 129.483 75.9475C129.339 75.9783 129.178 76.0372 128.999 76.1243L128.876 75.5863C129.05 75.4993 129.224 75.4403 129.398 75.4096C129.578 75.3737 129.788 75.3558 130.028 75.3558C130.392 75.3558 130.677 75.3994 130.881 75.4864C131.086 75.5735 131.23 75.7247 131.312 75.9398C131.399 76.1499 131.442 76.4419 131.442 76.8159V79.4287H130.843V76.8466ZM128.568 79.4287V73.8189H129.168V79.4287H128.568ZM136.345 79.4287L135.846 73.8189H136.476L136.783 78.6372H136.814L137.214 74.5873H138.167L138.566 78.6372H138.597L138.904 73.8189H139.534L139.035 79.4287H138.144L137.705 75.2943H137.675L137.237 79.4287H136.345ZM141.609 79.4287V75.9706H140.226V75.4327H142.224V79.4287H141.609ZM141.794 74.7103C141.63 74.7103 141.497 74.6642 141.394 74.572C141.297 74.4746 141.248 74.3465 141.248 74.1877C141.248 74.0238 141.297 73.8957 141.394 73.8035C141.497 73.7113 141.63 73.6652 141.794 73.6652C141.958 73.6652 142.088 73.7113 142.186 73.8035C142.288 73.8957 142.339 74.0238 142.339 74.1877C142.339 74.3465 142.288 74.4746 142.186 74.572C142.088 74.6642 141.958 74.7103 141.794 74.7103ZM143.938 75.6017C144.132 75.5146 144.34 75.4531 144.56 75.4173C144.781 75.3763 145.029 75.3558 145.306 75.3558C145.695 75.3558 145.997 75.3994 146.212 75.4864C146.433 75.5735 146.586 75.7247 146.674 75.9398C146.766 76.1499 146.812 76.4419 146.812 76.8159V79.4287H146.212V76.8466C146.212 76.5956 146.187 76.4009 146.136 76.2626C146.084 76.1243 145.992 76.0295 145.859 75.9783C145.731 75.9219 145.549 75.8937 145.313 75.8937C145.196 75.8937 145.085 75.9014 144.983 75.9168C144.88 75.9322 144.778 75.9578 144.676 75.9936C144.573 76.0244 144.46 76.073 144.337 76.1396L144.537 75.7554V79.4287H143.938V75.6017Z" fill="#0E555B"/>
</svg>
