<svg width="211" height="68" viewBox="0 0 211 68" fill="none" xmlns="http://www.w3.org/2000/svg">
<path d="M34 8.84991V40.2532M34 8.84991L27.8417 19.6477L22.5717 16.6784L24.8214 31.076L34 40.2532M34 8.84991L40.1582 19.6477L45.4283 16.6784L43.1786 31.076L34 40.2532M19.6931 59.1501L32.7363 42.415L18.343 28.1959L16.1826 31.076H7.905L10.064 40.8836L6.375 42.5935L20.7726 53.6619L19.6931 59.1501ZM19.6931 59.1501L49.657 28.1959L51.8174 31.076H60.095L57.936 40.8836L61.625 42.5935L47.2274 53.6619L48.3069 59.1501H19.6931Z" stroke="#E4EBEC" stroke-width="1.5" stroke-linecap="round" stroke-linejoin="round"/>
<path d="M67.0739 46.3438L67.3864 44.4545H78.6435L78.331 46.3438H73.7926L71.6903 59H69.5028L71.6051 46.3438H67.0739ZM77.413 59L79.2312 48.0909H81.2837L80.9925 49.8239H81.1062C81.3997 49.2367 81.8282 48.7751 82.3917 48.4389C82.9551 48.098 83.5565 47.9276 84.1957 47.9276C84.333 47.9276 84.4892 47.9323 84.6644 47.9418C84.8396 47.9465 84.9817 47.9583 85.0906 47.9773L84.7496 50.0085C84.6692 49.9848 84.5224 49.9588 84.3093 49.9304C84.0962 49.8973 83.8761 49.8807 83.6488 49.8807C83.1516 49.8807 82.69 49.9872 82.2638 50.2003C81.8377 50.4086 81.4802 50.6998 81.1914 51.0739C80.9026 51.4432 80.7156 51.8646 80.6303 52.3381L79.5366 59H77.413ZM92.7912 54.4759L93.8565 48.0909H95.9872L94.169 59H92.081L92.4006 57.1108H92.2869C91.946 57.6932 91.4631 58.1785 90.8381 58.5668C90.2178 58.9503 89.4981 59.142 88.679 59.142C87.9782 59.142 87.384 58.9882 86.8963 58.6804C86.4134 58.3679 86.0701 57.9062 85.8665 57.2955C85.6629 56.6847 85.6345 55.9295 85.7812 55.0298L86.946 48.0909H89.0696L87.9545 54.7741C87.8362 55.5175 87.9474 56.1094 88.2884 56.5497C88.6293 56.9901 89.1264 57.2102 89.7798 57.2102C90.1776 57.2102 90.5895 57.1108 91.0156 56.9119C91.4418 56.7131 91.8182 56.4124 92.1449 56.0099C92.4763 55.6075 92.6918 55.0961 92.7912 54.4759ZM101.696 59.2202C100.626 59.2202 99.7402 58.9905 99.0394 58.5312C98.3434 58.0672 97.8557 57.4162 97.5763 56.5781C97.297 55.7353 97.252 54.7481 97.4414 53.6165C97.6261 52.4991 97.9978 51.5142 98.5565 50.6619C99.1152 49.8097 99.8112 49.1444 100.645 48.6662C101.483 48.188 102.408 47.9489 103.422 47.9489C104.037 47.9489 104.617 48.0507 105.162 48.2543C105.711 48.4579 106.177 48.7775 106.561 49.2131C106.944 49.6487 107.209 50.2145 107.356 50.9105C107.508 51.6018 107.503 52.4422 107.342 53.4318L107.221 54.1847H98.5423L98.7908 52.5938H105.382C105.481 52.035 105.455 51.5402 105.304 51.1094C105.152 50.6738 104.892 50.3305 104.522 50.0795C104.158 49.8286 103.699 49.7031 103.145 49.7031C102.576 49.7031 102.046 49.8523 101.554 50.1506C101.061 50.4489 100.649 50.83 100.318 51.294C99.9911 51.7533 99.7852 52.2268 99.6999 52.7145L99.4513 54.1705C99.3282 54.9659 99.3496 55.6051 99.5153 56.0881C99.6857 56.571 99.984 56.9214 100.41 57.1392C100.836 57.357 101.369 57.4659 102.008 57.4659C102.42 57.4659 102.801 57.4091 103.152 57.2955C103.507 57.1771 103.822 57.0043 104.096 56.777C104.371 56.545 104.6 56.2562 104.785 55.9105L106.731 56.2727C106.471 56.8646 106.097 57.383 105.609 57.8281C105.121 58.2685 104.546 58.6117 103.883 58.858C103.225 59.0994 102.496 59.2202 101.696 59.2202ZM128.418 44.4545L126.003 59H123.986L118.368 48.3324H118.24L116.458 59H114.263L116.678 44.4545H118.709L124.334 55.1364H124.469L126.245 44.4545H128.418ZM133.679 59.2202C132.642 59.2202 131.776 58.9834 131.08 58.5099C130.384 58.0317 129.893 57.3641 129.609 56.5071C129.33 55.6454 129.283 54.6439 129.467 53.5028C129.647 52.3854 130.009 51.41 130.554 50.5767C131.103 49.7434 131.79 49.0971 132.614 48.6378C133.442 48.1785 134.363 47.9489 135.376 47.9489C136.413 47.9489 137.277 48.188 137.969 48.6662C138.665 49.1444 139.155 49.8144 139.439 50.6761C139.723 51.5379 139.773 52.5417 139.588 53.6875C139.408 54.7955 139.041 55.7661 138.487 56.5994C137.938 57.428 137.251 58.072 136.428 58.5312C135.604 58.9905 134.688 59.2202 133.679 59.2202ZM133.8 57.4375C134.482 57.4375 135.076 57.2576 135.582 56.8977C136.094 56.5379 136.51 56.0597 136.832 55.4631C137.154 54.8665 137.375 54.2131 137.493 53.5028C137.602 52.8163 137.599 52.1889 137.486 51.6207C137.377 51.0478 137.14 50.5885 136.776 50.2429C136.411 49.8973 135.904 49.7244 135.256 49.7244C134.574 49.7244 133.975 49.9067 133.459 50.2713C132.947 50.6312 132.531 51.1117 132.209 51.7131C131.892 52.3144 131.676 52.9702 131.562 53.6804C131.454 54.3622 131.454 54.9896 131.562 55.5625C131.671 56.1307 131.908 56.5852 132.273 56.9261C132.637 57.267 133.146 57.4375 133.8 57.4375ZM141.085 59L142.903 48.0909H144.956L144.664 49.8239H144.778C145.072 49.2367 145.5 48.7751 146.064 48.4389C146.627 48.098 147.228 47.9276 147.868 47.9276C148.005 47.9276 148.161 47.9323 148.336 47.9418C148.511 47.9465 148.654 47.9583 148.762 47.9773L148.422 50.0085C148.341 49.9848 148.194 49.9588 147.981 49.9304C147.768 49.8973 147.548 49.8807 147.321 49.8807C146.824 49.8807 146.362 49.9872 145.936 50.2003C145.51 50.4086 145.152 50.6998 144.863 51.0739C144.574 51.4432 144.387 51.8646 144.302 52.3381L143.208 59H141.085ZM156.355 48.0909L156.078 49.7955H150.119L150.396 48.0909H156.355ZM152.42 45.4773H154.544L152.825 55.7969C152.759 56.2088 152.77 56.5189 152.86 56.7273C152.95 56.9309 153.088 57.0705 153.272 57.1463C153.462 57.2173 153.672 57.2528 153.904 57.2528C154.075 57.2528 154.224 57.241 154.352 57.2173C154.48 57.1937 154.582 57.1747 154.657 57.1605L154.771 58.9148C154.629 58.9621 154.437 59.0095 154.196 59.0568C153.959 59.1089 153.67 59.1373 153.329 59.142C152.77 59.1515 152.266 59.0521 151.816 58.8438C151.367 58.6307 151.03 58.3087 150.808 57.8778C150.585 57.4422 150.531 56.8954 150.645 56.2372L152.42 45.4773ZM160.316 52.5227L159.251 59H157.127L159.542 44.4545H161.637L160.742 49.8665H160.877C161.223 49.2746 161.687 48.8082 162.269 48.4673C162.856 48.1217 163.576 47.9489 164.428 47.9489C165.176 47.9489 165.804 48.1027 166.31 48.4105C166.822 48.7183 167.182 49.1776 167.39 49.7884C167.603 50.3944 167.636 51.152 167.489 52.0611L166.325 59H164.201L165.309 52.3168C165.442 51.5166 165.337 50.8963 164.996 50.456C164.656 50.0109 164.123 49.7884 163.398 49.7884C162.892 49.7884 162.423 49.8949 161.992 50.108C161.566 50.321 161.206 50.6335 160.913 51.0455C160.619 51.4527 160.42 51.9451 160.316 52.5227ZM177.463 59L175.843 44.4545H178.152L179.118 55.7188H179.252L184.068 44.4545H186.355L187.434 55.7259H187.576L192.264 44.4545H194.579L188.123 59H185.914L184.672 48.1051H184.558L179.679 59H177.463ZM193.995 59L195.813 48.0909H197.937L196.119 59H193.995ZM197.319 46.3864C196.95 46.3864 196.637 46.2633 196.381 46.017C196.13 45.7661 196.014 45.4678 196.033 45.1222C196.052 44.7718 196.199 44.4735 196.474 44.2273C196.748 43.9763 197.068 43.8509 197.433 43.8509C197.802 43.8509 198.112 43.9763 198.363 44.2273C198.614 44.4735 198.732 44.7718 198.718 45.1222C198.699 45.4678 198.552 45.7661 198.278 46.017C198.008 46.2633 197.688 46.3864 197.319 46.3864ZM202.172 52.5227L201.106 59H198.983L200.801 48.0909H202.839L202.541 49.8665H202.676C203.021 49.2841 203.493 48.8201 204.089 48.4744C204.69 48.1241 205.401 47.9489 206.22 47.9489C206.958 47.9489 207.579 48.1051 208.081 48.4176C208.587 48.7254 208.945 49.1847 209.153 49.7955C209.366 50.4062 209.399 51.1615 209.252 52.0611L208.088 59H205.964L207.079 52.3168C207.207 51.526 207.103 50.9081 206.767 50.4631C206.435 50.0133 205.907 49.7884 205.183 49.7884C204.69 49.7884 204.234 49.8949 203.812 50.108C203.395 50.321 203.043 50.6335 202.754 51.0455C202.47 51.4527 202.276 51.9451 202.172 52.5227Z" fill="#E4EBEC"/>
</svg>
